HIERARCHY
ROOT Hips
{
	OFFSET	0.00	0.00	0.00
	CHANNELS 6 Xposition Yposition Zposition Zrotation Xrotation Yrotation
	JOINT LeftUpperLeg
	{
		OFFSET	-0.060319	-0.072984	 0.002079
		CHANNELS 3 Zrotation Xrotation Yrotation
		JOINT LeftLowerLeg
		{
			OFFSET	 0.351798	-0.005146	-0.008011
			CHANNELS 3 Zrotation Xrotation Yrotation
			JOINT LeftFoot
			{
				OFFSET	 0.378666	 0.003778	 0.003828
				CHANNELS 3 Zrotation Xrotation Yrotation
				JOINT LeftToes
				{
					OFFSET	 0.084296	 0.003922	 0.047710
					CHANNELS 3 Zrotation Xrotation Yrotation
					End Site
					{
						OFFSET	 0.084296	 0.003922	 0.047710
					}
				}
			}
		}
	}
	JOINT RightUpperLeg
	{
		OFFSET	-0.060836	 0.072553	 0.002079
		CHANNELS 3 Zrotation Xrotation Yrotation
		JOINT RightLowerLeg
		{
			OFFSET	 0.351363	 0.018233	-0.008011
			CHANNELS 3 Zrotation Xrotation Yrotation
			JOINT RightFoot
			{
				OFFSET	 0.378545	 0.010315	 0.003824
				CHANNELS 3 Zrotation Xrotation Yrotation
				JOINT RightToes
				{
					OFFSET	 0.084392	-0.002027	 0.047660
					CHANNELS 3 Zrotation Xrotation Yrotation
					End Site
					{
						OFFSET	 0.084392	-0.002027	 0.047660
					}
				}
			}
		}
	}
	JOINT Character1_Spine
	{
		OFFSET	 0.022713	 0.000080	 0.008181
		CHANNELS 3 Zrotation Xrotation Yrotation
		JOINT Spine
		{
			OFFSET	 0.091343	 0.000000	 0.001755
			CHANNELS 3 Zrotation Xrotation Yrotation
			JOINT Chest
			{
				OFFSET	 0.087667	 0.000000	-0.000304
				CHANNELS 3 Zrotation Xrotation Yrotation
				JOINT LeftShoulder
				{
					OFFSET	 0.122367	-0.042227	-0.001395
					CHANNELS 3 Zrotation Xrotation Yrotation
					JOINT LeftUpperArm
					{
						OFFSET	 0.055437	-0.000001	 0.000000
						CHANNELS 3 Zrotation Xrotation Yrotation
						JOINT LeftLowerArm
						{
							OFFSET	 0.233777	-0.000011	 0.000017
							CHANNELS 3 Zrotation Xrotation Yrotation
							JOINT LeftHand
							{
								OFFSET	 0.162482	 0.000000	-0.000001
								CHANNELS 3 Zrotation Xrotation Yrotation
								JOINT LeftIndexProximal
								{
									OFFSET	 0.080750	 0.001428	 0.025713
									CHANNELS 3 Zrotation Xrotation Yrotation
									JOINT LeftIndexIntermediate
									{
										OFFSET	 0.024260	 0.001187	 0.002507
										CHANNELS 3 Zrotation Xrotation Yrotation
										JOINT LeftIndexDistal
										{
											OFFSET	 0.016097	 0.000458	 0.000118
											CHANNELS 3 Zrotation Xrotation Yrotation
											End Site
											{
												OFFSET	 0.016097	 0.000458	 0.000118
											}
										}
									}
								}
								JOINT LeftMiddleProximal
								{
									OFFSET	 0.080696	 0.006021	 0.005822
									CHANNELS 3 Zrotation Xrotation Yrotation
									JOINT LeftMiddleIntermediate
									{
										OFFSET	 0.025063	-0.003793	 0.001482
										CHANNELS 3 Zrotation Xrotation Yrotation
										JOINT LeftMiddleDistal
										{
											OFFSET	 0.019431	-0.000162	-0.000068
											CHANNELS 3 Zrotation Xrotation Yrotation
											End Site
											{
												OFFSET	 0.019431	-0.000162	-0.000068
											}
										}
									}
								}
								JOINT LeftLittleProximal
								{
									OFFSET	 0.065753	 0.002283	-0.027836
									CHANNELS 3 Zrotation Xrotation Yrotation
									JOINT LeftLittleIntermediate
									{
										OFFSET	 0.018097	 0.000014	 0.000133
										CHANNELS 3 Zrotation Xrotation Yrotation
										JOINT LeftLittleDistal
										{
											OFFSET	 0.013911	-0.000247	 0.000003
											CHANNELS 3 Zrotation Xrotation Yrotation
											End Site
											{
												OFFSET	 0.013911	-0.000247	 0.000003
											}
										}
									}
								}
								JOINT LeftRingProximal
								{
									OFFSET	 0.076793	 0.006246	-0.012626
									CHANNELS 3 Zrotation Xrotation Yrotation
									JOINT LeftRingIntermediate
									{
										OFFSET	 0.023683	-0.001098	-0.000754
										CHANNELS 3 Zrotation Xrotation Yrotation
										JOINT LeftRingDistal
										{
											OFFSET	 0.015907	 0.000860	 0.000167
											CHANNELS 3 Zrotation Xrotation Yrotation
											End Site
											{
												OFFSET	 0.015907	 0.000860	 0.000167
											}
										}
									}
								}
								JOINT LeftThumbProximal
								{
									OFFSET	 0.024761	-0.014236	 0.018266
									CHANNELS 3 Zrotation Xrotation Yrotation
									JOINT LeftThumbIntermediate
									{
										OFFSET	 0.032146	-0.001523	 0.001986
										CHANNELS 3 Zrotation Xrotation Yrotation
										JOINT LeftThumbDistal
										{
											OFFSET	 0.017566	-0.000085	-0.001004
											CHANNELS 3 Zrotation Xrotation Yrotation
											End Site
											{
												OFFSET	 0.017566	-0.000085	-0.001004
											}
										}
									}
								}
							}
						}
					}
				}
				JOINT Neck
				{
					OFFSET	 0.156851	-0.000286	 0.008298
					CHANNELS 3 Zrotation Xrotation Yrotation
					JOINT Head
					{
						OFFSET	 0.078083	 0.000000	-0.005534
						CHANNELS 3 Zrotation Xrotation Yrotation
						End Site
						{
							OFFSET	 0.078083	 0.000000	-0.005534
						}
					}
				}
				JOINT RightShoulder
				{
					OFFSET	 0.122455	 0.041994	-0.000150
					CHANNELS 3 Zrotation Xrotation Yrotation
					JOINT RightUpperArm
					{
						OFFSET	 0.055437	 0.000001	 0.000000
						CHANNELS 3 Zrotation Xrotation Yrotation
						JOINT RightLowerArm
						{
							OFFSET	 0.233779	 0.000012	 0.000017
							CHANNELS 3 Zrotation Xrotation Yrotation
							JOINT RightHand
							{
								OFFSET	 0.162480	-0.000002	-0.000001
								CHANNELS 3 Zrotation Xrotation Yrotation
								JOINT RightIndexProximal
								{
									OFFSET	 0.077459	-0.023877	 0.024774
									CHANNELS 3 Zrotation Xrotation Yrotation
									JOINT RightIndexIntermediate
									{
										OFFSET	 0.024233	 0.002008	-0.002230
										CHANNELS 3 Zrotation Xrotation Yrotation
										JOINT RightIndexDistal
										{
											OFFSET	 0.015886	 0.002643	 0.000001
											CHANNELS 3 Zrotation Xrotation Yrotation
											End Site
											{
												OFFSET	 0.015886	 0.002643	 0.000001
											}
										}
									}
								}
								JOINT RightMiddleProximal
								{
									OFFSET	 0.077341	-0.024111	 0.004360
									CHANNELS 3 Zrotation Xrotation Yrotation
									JOINT RightMiddleIntermediate
									{
										OFFSET	 0.025355	-0.001169	-0.000680
										CHANNELS 3 Zrotation Xrotation Yrotation
										JOINT RightMiddleDistal
										{
											OFFSET	 0.019416	 0.000705	-0.000417
											CHANNELS 3 Zrotation Xrotation Yrotation
											End Site
											{
												OFFSET	 0.019416	 0.000705	-0.000417
											}
										}
									}
								}
								JOINT RightLittleProximal
								{
									OFFSET	 0.065019	-0.010365	-0.027722
									CHANNELS 3 Zrotation Xrotation Yrotation
									JOINT RightLittleIntermediate
									{
										OFFSET	 0.018098	 0.000052	-0.000144
										CHANNELS 3 Zrotation Xrotation Yrotation
										JOINT RightLittleDistal
										{
											OFFSET	 0.013886	-0.000828	 0.000267
											CHANNELS 3 Zrotation Xrotation Yrotation
											End Site
											{
												OFFSET	 0.013886	-0.000828	 0.000267
											}
										}
									}
								}
								JOINT RightRingProximal
								{
									OFFSET	 0.074304	-0.019655	-0.013711
									CHANNELS 3 Zrotation Xrotation Yrotation
									JOINT RightRingIntermediate
									{
										OFFSET	 0.023458	 0.003508	-0.000008
										CHANNELS 3 Zrotation Xrotation Yrotation
										JOINT RightRingDistal
										{
											OFFSET	 0.015893	-0.000379	-0.001033
											CHANNELS 3 Zrotation Xrotation Yrotation
											End Site
											{
												OFFSET	 0.015893	-0.000379	-0.001033
											}
										}
									}
								}
								JOINT RightThumbProximal
								{
									OFFSET	 0.026339	 0.004527	 0.020861
									CHANNELS 3 Zrotation Xrotation Yrotation
									JOINT RightThumbIntermediate
									{
										OFFSET	 0.032030	-0.000602	 0.001128
										CHANNELS 3 Zrotation Xrotation Yrotation
										JOINT RightThumbDistal
										{
											OFFSET	 0.017586	-0.000153	 0.000511
											CHANNELS 3 Zrotation Xrotation Yrotation
											End Site
											{
												OFFSET	 0.017586	-0.000153	 0.000511
											}
										}
									}
								}
							}
						}
					}
				}
			}
		}
	}
}
MOTION
Frames:    6
Frame Time: 0.01666667
-0.002926	-2.870055	 0.848801	 91.955020	-0.234188	-99.739790	 171.888000	 9.348176	-30.843090	 5.847643	 3.003983	 104.158000	-3.077580	-5.462837	 8.710891	-2.826671	-1.476242	-62.555910	-178.675100	 1.714980	-25.837360	 0.839178	-0.316069	 27.682310	-2.722682	-3.587955	-33.088140	 0.003016	-0.006121	-62.519580	 0.203542	 0.000000	-4.902169	-0.138452	 0.519310	-1.599926	 0.114583	-5.059129	-0.514098	-91.028540	 18.032400	 8.241735	-59.426460	 7.802784	-8.671612	 2.983494	-7.953912	-94.249310	-5.725408	-9.246273	-17.014580	-16.219900	 12.799340	 22.848350	-46.760330	 0.086493	-0.447735	-65.113910	-0.034518	 0.299777	-10.501390	 8.460031	 11.112190	-71.727070	-5.008601	 6.021436	-87.598660	-12.306780	 14.793070	-14.353840	-15.166860	-3.905336	-30.397190	-0.130816	 17.520200	-88.561900	-25.462410	 30.191190	-40.601220	-13.944220	 3.045841	-37.013990	-1.283415	 11.655450	-106.245900	-29.310990	 19.131900	 111.739800	 49.854890	-126.332400	-19.032020	 0.543751	-9.628606	-25.348680	-0.976149	-0.758776	 0.343184	 0.789165	-10.151760	 0.438580	 3.078760	 20.284830	 88.907330	-18.069930	-1.497917	 72.417850	-6.555341	 8.698006	-0.181622	 8.277653	-91.345770	 8.313440	-0.588992	-5.084569	-172.225900	-9.401185	 172.519800	-57.539990	 2.064740	-6.422204	-73.080210	 1.300148	-5.111495	-164.906900	-8.457397	-173.687600	-64.330990	 2.051082	-9.780326	-90.403130	 6.371168	-8.306233	 175.404700	-28.033830	-171.241800	-26.573670	 4.412509	-17.509450	-84.322740	 32.402880	-38.465610	-135.157500	-22.770090	-160.790100	-17.684740	-0.625921	-13.850880	-92.638000	 20.685100	-23.982450	 49.686570	 53.765860	-56.525540	-20.810580	 3.803967	 8.623054	-30.770500	-2.362329	 9.390651
-0.003595	-3.005736	 0.838212	 91.954700	-0.233722	-99.739520	 174.487900	 9.248436	-41.223800	 4.684210	 3.191087	 99.146680	-2.732396	-3.675154	-6.032861	-2.826675	-1.476235	-62.555980	-178.116300	 0.490111	-25.081770	 0.980758	-0.373941	 35.476560	-3.953986	-2.528801	-37.481980	 0.003016	-0.006121	-62.519560	 0.203542	 0.000000	-4.902169	-0.115776	 0.524986	-1.397031	-0.162413	-3.584996	-0.300427	-91.145610	 18.023260	 8.278354	-62.853820	 8.479780	 0.991694	 2.964037	-6.448180	-94.089580	-5.370575	-9.344765	-15.600960	-16.219910	 12.799340	 22.848350	-46.760200	 0.086491	-0.447734	-65.113980	-0.034517	 0.299775	-10.501390	 8.460045	 11.112230	-71.727110	-5.008605	 6.021439	-87.598640	-12.306780	 14.793070	-14.353900	-15.166870	-3.905392	-30.397190	-0.130816	 17.520200	-88.561970	-25.462450	 30.191200	-40.601210	-13.944220	 3.045794	-37.014040	-1.283419	 11.655470	-106.245900	-29.310990	 19.131900	 111.739800	 49.854890	-126.332300	-19.032040	 0.543754	-9.628609	-25.348630	-0.976150	-0.758768	 0.323693	 0.207163	-9.624026	 0.527719	 2.526042	 20.791060	 89.043950	-18.073200	-1.388265	 71.735240	-4.648215	 5.840405	 0.060352	 10.847310	-101.909700	 6.929304	-0.348094	-5.562088	-172.226000	-9.401182	 172.519800	-57.540090	 2.064756	-6.422210	-73.080170	 1.300143	-5.111492	-164.906900	-8.457393	-173.687600	-64.331020	 2.051090	-9.780325	-90.403080	 6.371165	-8.306227	 175.404600	-28.033820	-171.241900	-26.573780	 4.412536	-17.509510	-84.322690	 32.402840	-38.465600	-135.157500	-22.770110	-160.790100	-17.684690	-0.625927	-13.850860	-92.638030	 20.685120	-23.982450	 49.686540	 53.765930	-56.525600	-20.810600	 3.803964	 8.623063	-30.770530	-2.362334	 9.390659
-0.003886	-3.139538	 0.834735	 91.954610	-0.233500	-99.739300	 176.575800	 8.426332	-42.116120	 3.645863	 3.011581	 82.613040	-2.610353	-2.263299	-21.993260	-2.826675	-1.476235	-62.555980	-177.351200	-0.178512	-21.704710	 1.015807	-0.376437	 37.573380	-5.232369	-2.160650	-39.197660	 0.003016	-0.006121	-62.519560	 0.203542	 0.000000	-4.902169	-0.106805	 0.527516	-1.307613	-0.284657	-2.974364	-0.234959	-91.143010	 18.023460	 8.277613	-64.362050	 8.722259	 4.765908	 2.872812	-5.724355	-93.911770	-5.050059	-9.506182	-14.242880	-16.219870	 12.799330	 22.848280	-46.760200	 0.086491	-0.447734	-65.114070	-0.034521	 0.299775	-10.501320	 8.460032	 11.112170	-71.727110	-5.008605	 6.021439	-87.598700	-12.306790	 14.793070	-14.353930	-15.166880	-3.905429	-30.397150	-0.130804	 17.520180	-88.561970	-25.462450	 30.191200	-40.601150	-13.944210	 3.045784	-37.014060	-1.283421	 11.655470	-106.245900	-29.310990	 19.131900	 111.739800	 49.854910	-126.332300	-19.032000	 0.543748	-9.628601	-25.348620	-0.976150	-0.758763	 0.316046	-0.018581	-9.427462	 0.607859	 2.051171	 21.224560	 89.076320	-18.073940	-1.362281	 71.505760	-3.642873	 4.684111	 0.320884	 12.044200	-105.581600	 6.493776	-0.092282	-5.820693	-172.226000	-9.401177	 172.519800	-57.540100	 2.064758	-6.422211	-73.080120	 1.300147	-5.111492	-164.906900	-8.457397	-173.687600	-64.331160	 2.051116	-9.780335	-90.403040	 6.371156	-8.306232	 175.404600	-28.033820	-171.241900	-26.573730	 4.412522	-17.509490	-84.322700	 32.402850	-38.465600	-135.157500	-22.770090	-160.790100	-17.684710	-0.625921	-13.850870	-92.638030	 20.685120	-23.982450	 49.686560	 53.765900	-56.525600	-20.810600	 3.803964	 8.623063	-30.770560	-2.362350	 9.390672
-0.003095	-3.272244	 0.846344	 91.956540	-0.233900	-99.738280	 176.504300	 8.769840	-46.745060	 3.520535	 3.372363	 89.689670	-2.866610	-2.790022	-11.785760	-2.826674	-1.476236	-62.555960	-177.245000	-0.075012	-13.545880	 0.710123	 0.029939	 32.629710	-5.604176	-2.565964	-27.213750	 0.003016	-0.006121	-62.519530	 0.203542	 0.000000	-4.902169	-0.119535	 0.523975	-1.170753	-0.687949	-2.163604	-0.763784	-89.478450	 18.146640	 7.760696	-64.514560	 6.128642	 7.123098	 2.629916	-7.386444	-82.048130	-2.427453	-10.068370	-18.158330	-16.219800	 12.799320	 22.848240	-46.760360	 0.086493	-0.447733	-65.114070	-0.034521	 0.299775	-10.501340	 8.460056	 11.112260	-71.727110	-5.008605	 6.021439	-87.598640	-12.306780	 14.793070	-14.353880	-15.166870	-3.905439	-30.397150	-0.130806	 17.520190	-88.562090	-25.462510	 30.191210	-40.601180	-13.944210	 3.045767	-37.014090	-1.283426	 11.655490	-106.245800	-29.310980	 19.131910	 111.739700	 49.854820	-126.332400	-19.032040	 0.543754	-9.628609	-25.348570	-0.976151	-0.758754	 0.310348	-0.326256	-9.914715	 0.695398	 1.728012	 20.753640	 87.800800	-18.034240	-2.386689	 67.146550	-2.738566	-8.134405	 0.473931	 14.776480	-104.503600	 7.001150	-0.535232	-9.631792	-172.225900	-9.401182	 172.519800	-57.540140	 2.064766	-6.422215	-73.080040	 1.300131	-5.111494	-164.906900	-8.457392	-173.687600	-64.331200	 2.051120	-9.780342	-90.402950	 6.371144	-8.306225	 175.404500	-28.033800	-171.242000	-26.573760	 4.412527	-17.509490	-84.322720	 32.402860	-38.465600	-135.157500	-22.770090	-160.790100	-17.684700	-0.625923	-13.850870	-92.637990	 20.685090	-23.982440	 49.686540	 53.765970	-56.525630	-20.810510	 3.803970	 8.623023	-30.770560	-2.362350	 9.390672
-0.001944	-3.510384	 0.862579	 91.962330	-0.234996	-99.735480	 176.967800	 8.896125	-53.701840	 3.444333	 3.558211	 90.131770	-2.763610	-2.559390	-5.463977	-2.826674	-1.476236	-62.555960	-177.385600	 1.096616	-4.481857	 0.286463	 0.980792	 26.384620	-6.143907	-4.549056	-13.280970	 0.003016	-0.006121	-62.519420	 0.203542	 0.000000	-4.902169	-0.141903	 0.518583	-1.414136	-1.215012	-1.068756	-0.892207	-87.946740	 18.247240	 7.284122	-64.940310	 6.289459	 10.163470	 2.124648	-6.041283	-63.887450	 0.238049	-10.891930	-22.173390	-16.219850	 12.799330	 22.848220	-46.760410	 0.086493	-0.447733	-65.114020	-0.034521	 0.299775	-10.501340	 8.460056	 11.112260	-71.727120	-5.008606	 6.021440	-87.598450	-12.306730	 14.793060	-14.353920	-15.166870	-3.905431	-30.397150	-0.130804	 17.520180	-88.561970	-25.462450	 30.191200	-40.601220	-13.944210	 3.045679	-37.014140	-1.283437	 11.655500	-106.245600	-29.310900	 19.131940	 111.739700	 49.854820	-126.332300	-19.032030	 0.543753	-9.628608	-25.348570	-0.976151	-0.758754	 0.302942	-0.742518	-10.622310	 0.777616	 1.423365	 20.237870	 86.210260	-17.954250	-3.664425	 62.219530	-1.188665	-24.389040	 0.358019	 17.398300	-100.004500	 7.630198	-1.443937	-14.305450	-172.225900	-9.401186	 172.519800	-57.540240	 2.064780	-6.422220	-73.080040	 1.300130	-5.111494	-164.906900	-8.457400	-173.687500	-64.331280	 2.051137	-9.780353	-90.402890	 6.371135	-8.306229	 175.404500	-28.033800	-171.242000	-26.573820	 4.412547	-17.509530	-84.322690	 32.402840	-38.465600	-135.157500	-22.770070	-160.790100	-17.684700	-0.625925	-13.850860	-92.638070	 20.685130	-23.982450	 49.686540	 53.765970	-56.525630	-20.810550	 3.803972	 8.623039	-30.770640	-2.362360	 9.390701
-0.000399	-3.618220	 0.878833	 91.950400	-0.254676	-98.791850	 177.722400	 8.278853	-60.703210	 2.744033	 3.197107	 77.883920	-2.147784	-1.516968	-17.532660	-2.826674	-1.476236	-62.555960	-178.629300	 6.730443	 3.365445	-1.276138	 2.033102	 25.034950	-7.220151	-11.092730	-3.325263	 0.003016	-0.006121	-62.519460	 0.203542	 0.000000	-4.902169	-0.192940	 0.138812	-1.170508	-1.706656	 0.113435	 0.166715	-87.419410	 18.279100	 7.121825	-66.527440	 4.935068	 12.824950	 0.783125	-7.288095	-37.571000	 1.930998	-12.507500	-24.537050	-15.092590	 12.826040	 22.454500	-44.373240	 0.050334	-0.462215	-61.294060	-0.077615	 0.311588	-10.068320	 8.557695	 11.257150	-67.475330	-4.568844	 5.598468	-81.225880	-11.011030	 14.629930	-15.487750	-15.323460	-4.136349	-29.267480	 0.210422	 17.005440	-85.170560	-23.739870	 29.980790	-38.025050	-13.557830	 3.142495	-35.628730	-0.991721	 11.195840	-101.104000	-27.713500	 19.630330	 111.739500	 49.854770	-126.331700	-19.032090	 0.543762	-9.628621	-25.348620	-0.976150	-0.758763	 0.285492	-1.114749	-12.208110	 0.865712	 1.176319	 18.893350	 85.243810	-17.889020	-4.441919	 58.801670	-0.989981	-37.519040	 0.035457	 17.897270	-86.133960	 9.049984	-2.378791	-16.868600	-172.135000	-9.393000	 172.530900	-54.525570	 1.677234	-6.197536	-68.624600	 0.894433	-5.066706	-165.438500	-8.451620	-174.210400	-60.593120	 1.483725	-9.430791	-84.992340	 5.594586	-8.148786	 176.122000	-28.034490	-171.332100	-24.930330	 3.934860	-16.660020	-79.877300	 29.402750	-37.762000	-137.154800	-23.066590	-161.357600	-16.364320	-0.841496	-13.271850	-88.004970	 18.712880	-23.626780	 49.686570	 53.766060	-56.525910	-20.810550	 3.803972	 8.623039	-30.770600	-2.362356	 9.390685
